{"title":"Instant Mom S03E19 720p HDTV EN-SUB x264-W4F","uid":12834560,"size":640526884,"categoryP":"video","categoryS":"hd___tv_shows","magnet":"?xt=urn:btih:f044f19b12066c6984a4eb2350fb618c5f27ddfe&amp;dn=Instant+Mom+S03E19+720p+HDTV+EN-SUB+x264-W4F&amp;tr=udp%3A%2F%2Ftracker.leechers-paradise.org%3A6969&amp;tr=udp%3A%2F%2Fzer0day.ch%3A1337&amp;tr=udp%3A%2F%2Fopen.demonii.com%3A1337&amp;tr=udp%3A%2F%2Ftracker.coppersurfer.tk%3A6969&amp;tr=udp%3A%2F%2Fexodus.desync.com%3A6969","seeders":0,"leechers":0,"uploader":"Mulva1989","files":1,"time":1448431860,"description":"Instant Mom S03E19 720p HDTV EN-SUB x264-W4F\r\n\r\nJames and Gabby try to make a business out of selling Grandma Maggie's fruit snacks, but when she finds out, she wants a piece of the action.\r\n\r\nScreens @ \nhttp://extraimago.com/images/2015/11/25/Instant.Mom.S03E19.720p.HDTV.x264-W4F.mkv_snapshot_04.39_2015.11.25_06.05.12.jpg \nhttp://extraimago.com/images/2015/11/25/Instant.Mom.S03E19.720p.HDTV.x264-W4F.mkv.jpg\r\n\r\nFormat                      : Matroska\r\nFormat version              : Version 4 / Version 2\r\nFile size                   : 611 MiB\r\nDuration                    : 20mn 30s\r\nOverall bit rate            : 4 166 Kbps\r\nEncoded date                : UTC 2015-11-22 23:28:02\r\nWriting application         : mkvmerge v6.0.0 ('Coming Up For Air') built on Jan 20 2013 09:52:00\r\nWriting library             : libebml v1.3.0 + libmatroska v1.4.0\r\n\r\nVideo\r\nID                          : 1\r\nFormat                      : AVC\r\nFormat/Info                 : Advanced Video Codec\r\nFormat profile              :   \r\nFormat settings, CABAC      : Yes\r\nFormat settings, ReFrames   : 5 frames\r\nCodec ID                    : V_MPEG4/ISO/AVC\r\nDuration                    : 20mn 30s\r\nBit rate                    : 3 699 Kbps\r\nWidth                       : 1 280 pixels\r\nHeight                      : 720 pixels\r\nDisplay aspect ratio        : 16:9\r\nFrame rate mode             : Constant\r\nFrame rate                  : 23.976 fps\r\nColor space                 : YUV\r\nChroma subsampling          : 4:2:0\r\nBit depth                   : 8 bits\r\nScan type                   : Progressive\r\nBits/(Pixel*Frame)          : 0.167\r\nStream size                 : 542 MiB (89%)\r\nWriting library             : x264 core 148 r2638 7599210\r\nEncoding settings           : cabac=1 / ref=5 / deblock=1:0:0 / analyse=0x3:0x113 / me=umh / subme=8 / psy=1 / psy_rd=1.00:0.00 / mixed_ref=1 / me_range=16 / chroma_me=1 / trellis=1 / 8x8dct=1 / cqm=0 / deadzone=21,11 / fast_pskip=1 / chroma_qp_offset=-2 / threads=12 / lookahead_threads=2 / sliced_threads=0 / nr=0 / decimate=1 / interlaced=0 / bluray_compat=0 / constrained_intra=0 / bframes=3 / b_pyramid=2 / b_adapt=2 / b_bias=0 / direct=3 / weightb=1 / open_gop=0 / weightp=2 / keyint=250 / keyint_min=25 / scenecut=40 / intra_refresh=0 / rc_lookahead=50 / rc=crf / mbtree=1 / crf=19.0 / qcomp=0.60 / qpmin=0 / qpmax=69 / qpstep=4 / ip_ratio=1.40 / aq=1:1.00\r\nLanguage                    : English\r\nDefault                     : Yes\r\nForced                      : No\r\n\r\nAudio\r\nID                          : 2\r\nFormat                      : AC-3\r\nFormat/Info                 : Audio Coding 3\r\nMode extension              : CM (complete main)\r\nFormat settings, Endianness : Big\r\nCodec ID                    : A_AC3\r\nDuration                    : 20mn 30s\r\nBit rate mode               : Constant\r\nBit rate                    : 384 Kbps\r\nChannel(s)                  : 6 channels\r\nChannel positions           : Front: L C R, Side: L R, LFE\r\nSampling rate               : 48.0 KHz\r\nBit depth                   : 16 bits\r\nCompression mode            : Lossy\r\nStream size                 : 56.3 MiB (9%)\r\nLanguage                    : English\r\nDefault                     : Yes\r\nForced                      : No\r\n\r\nText\r\nID                          : 3\r\nFormat                      : UTF-8\r\nCodec ID                    : S_TEXT/UTF8\r\nCodec ID/Info               : UTF-8 Plain Text\r\nLanguage                    : English\r\nDefault                     : No\r\nForced                      : No","torrent":{"xt":"urn:btih:f044f19b12066c6984a4eb2350fb618c5f27ddfe","amp;dn":"Instant+Mom+S03E19+720p+HDTV+EN-SUB+x264-W4F","amp;tr":["udp%3A%2F%2Ftracker.leechers-paradise.org%3A6969","udp%3A%2F%2Fzer0day.ch%3A1337","udp%3A%2F%2Fopen.demonii.com%3A1337","udp%3A%2F%2Ftracker.coppersurfer.tk%3A6969","udp%3A%2F%2Fexodus.desync.com%3A6969"],"infoHash":"f044f19b12066c6984a4eb2350fb618c5f27ddfe","infoHashBuffer":{"type":"Buffer","data":[240,68,241,155,18,6,108,105,132,164,235,35,80,251,97,140,95,39,221,254]},"announce":[],"urlList":[]}}